<svg t="1573443220281" class="icon" viewBox="0 0 1024 1024" version="1.1" xmlns="http://www.w3.org/2000/svg" p-id="8315" width="128" height="128"><path d="M791.1424 801.792 232.8576 801.792 105.1648 432.128c-4.3008-12.288-2.2528-26.0096 5.2224-36.5568 7.5776-10.6496 19.8656-16.9984 32.8704-16.9984 4.096 0 8.0896 0.6144 12.0832 1.8432l207.1552 64.3072 108.1344-222.9248c7.7824-15.9744 23.6544-26.0096 41.472-26.0096 17.8176 0 33.6896 9.9328 41.472 26.0096l108.1344 222.9248 207.1552-64.3072c3.8912-1.2288 7.9872-1.8432 12.0832-1.8432 13.0048 0 25.2928 6.3488 32.8704 16.9984 7.5776 10.5472 9.5232 24.2688 5.2224 36.5568L791.1424 801.792zM267.8784 752.64l488.2432 0 110.592-320.2048-230.912 71.68L512 248.832 388.1984 504.1152l-230.912-71.68L267.8784 752.64z" p-id="8316" fill="#f4ea2a"></path><path d="M778.24 898.048 247.808 898.048c-13.6192 0-24.576-10.9568-24.576-24.576s10.9568-24.576 24.576-24.576l530.432 0c13.6192 0 24.576 10.9568 24.576 24.576S791.8592 898.048 778.24 898.048z" p-id="8317" fill="#f4ea2a"></path><path d="M512 244.736c-41.7792 0-75.776-33.9968-75.776-75.776s33.9968-75.776 75.776-75.776 75.776 33.9968 75.776 75.776S553.7792 244.736 512 244.736zM512 142.336c-14.6432 0-26.624 11.9808-26.624 26.624s11.9808 26.624 26.624 26.624c14.6432 0 26.624-11.9808 26.624-26.624S526.6432 142.336 512 142.336z" p-id="8318" fill="#f4ea2a"></path><path d="M933.888 439.296c-41.7792 0-75.776-33.9968-75.776-75.776s33.9968-75.776 75.776-75.776 75.776 33.9968 75.776 75.776S975.6672 439.296 933.888 439.296zM933.888 336.896c-14.6432 0-26.624 11.9808-26.624 26.624s11.9808 26.624 26.624 26.624 26.624-11.9808 26.624-26.624S948.5312 336.896 933.888 336.896z" p-id="8319" fill="#f4ea2a"></path><path d="M92.16 439.296c-41.7792 0-75.776-33.9968-75.776-75.776s33.9968-75.776 75.776-75.776 75.776 33.9968 75.776 75.776S133.9392 439.296 92.16 439.296zM92.16 336.896c-14.6432 0-26.624 11.9808-26.624 26.624s11.9808 26.624 26.624 26.624 26.624-11.9808 26.624-26.624S106.8032 336.896 92.16 336.896z" p-id="8320" fill="#f4ea2a"></path></svg>